<svg width="537" height="789" viewBox="0 0 537 789" fill="none" xmlns="http://www.w3.org/2000/svg">
<path opacity="0.5" fill-rule="evenodd" clip-rule="evenodd" d="M1176.31 589.159L1174.93 591.556C1160.37 616.269 1141.49 637.904 1118.97 656.277C1095.38 675.489 1068.95 689.57 1040.48 698.118C975.954 717.802 905.878 707.847 837.645 669.034C694.949 588.097 528.128 630.972 393.591 665.55L392.375 665.862C331.795 681.726 274.434 696.542 228.493 697.617C177.465 698.949 144.454 683.667 124.541 649.22C103.824 613.147 95.1879 569.233 99.1601 518.072C102.056 477.33 112.992 432.224 131.463 383.624C161.266 305.302 201.698 243.814 206.279 236.848L206.279 236.847C206.532 236.463 206.676 236.244 206.702 236.199C237.367 196.672 271.34 163.995 307.431 139.222C341.175 115.999 377.825 98.8122 416.317 88.4987C418.723 87.8541 421.129 87.2095 423.409 86.7828C346.617 106.069 272.953 152.144 207.356 236.576C207.32 236.638 207.146 236.905 206.843 237.369C201.856 245.02 161.981 306.182 132.243 383.784C103.101 459.922 78.3746 567.66 125.228 649.036C144.831 683.014 177.716 698.514 228.527 697.055C274.593 695.763 331.828 681.164 392.282 665.519C459.954 647.939 536.653 628.309 612.819 623.188C695.851 617.701 766.321 630.806 827.842 663.104C690.853 586.376 530.863 627.65 402.014 660.89L402.014 660.89L401.571 661.004C399.794 661.458 398.021 661.911 396.25 662.363C339.956 676.744 286.874 690.305 243.968 691.445C194.875 692.443 163.08 677.572 143.971 644.751C124.184 610.087 115.791 567.765 119.628 518.851C122.549 479.575 133.04 436.245 150.723 389.515C179.663 313.953 218.724 254.277 222.599 248.357C222.786 248.071 222.891 247.91 222.909 247.88C252.349 209.971 285.006 178.567 319.689 154.724C352.024 132.431 387.392 115.956 424.291 105.885C437.351 102.386 450.595 99.574 464.241 97.5752C378.584 110.581 296.002 154.993 223.563 248.257C223.526 248.32 223.354 248.585 223.055 249.044C218.198 256.506 179.969 315.244 151.502 389.674C123.56 462.728 99.757 566.351 144.784 644.349C163.675 677.044 195.253 691.789 243.909 690.54C288.165 689.364 343.121 675.192 401.169 660.191C466.091 643.348 539.822 624.329 613.147 619.601C689.354 614.687 754.623 625.833 811.749 653.792C681.954 585.812 531.759 624.623 410.549 656.02C354.563 670.468 302.014 683.996 259.442 685.272C212.253 686.497 181.764 672.381 163.711 640.751C144.511 607.587 136.578 566.983 140.188 519.972C143.008 482.381 153.179 440.61 170.166 396.092C197.943 323.523 235.232 266.475 238.993 260.721C239.178 260.438 239.282 260.279 239.3 260.248C249.209 247.541 259.446 235.63 270.001 224.526C259.701 235.456 249.668 247.187 239.895 259.72C239.836 259.823 239.605 260.186 239.215 260.797L239.214 260.798L239.214 260.799C237.127 264.077 230.494 274.493 221.378 290.282C207.164 314.903 187.212 352.48 170.762 395.564C144.019 465.534 121.265 564.824 164.34 639.662C182.519 671.074 212.79 685.064 259.418 683.806C300.529 682.78 351.238 669.853 405.142 656.11C406.891 655.665 408.643 655.218 410.399 654.771L414.154 653.809C475.607 638.063 544.618 620.381 613.601 615.796C687.638 610.957 750.526 622.061 805.872 649.408C681.131 582.735 536.234 620.119 419.561 650.474C417.86 650.907 416.162 651.338 414.467 651.77L414.305 651.811L414.305 651.811C362.793 664.913 314.159 677.284 274.859 678.195C229.697 679.429 200.642 665.85 183.083 635.377C164.813 603.621 157.122 564.61 160.506 519.501C163.224 483.595 172.733 443.475 189.275 400.734C215.968 330.842 252.249 275.848 255.36 271.132C255.491 270.933 255.564 270.824 255.574 270.806C308.081 203.51 370.346 159.569 440.365 140.44C500.635 124.107 568.627 125.596 642.531 145.024C777.81 180.422 908.831 267.978 1004.63 332.004C1007.7 334.035 1010.74 336.052 1013.76 338.05C1034.28 351.658 1053.49 364.388 1070.26 374.83C1106.76 397.649 1129.33 431.015 1135.14 471.266C1140.19 507.301 1131.75 546.583 1111.12 582.315L1109.86 584.494C1083.17 629.218 1040.07 663.602 991.171 678.363C939.12 694.158 883.113 688.33 828.007 661.255C962.556 733.325 1079.04 673.638 1130.95 586.211L1132.21 584.032C1161.57 533.171 1170.73 466.525 1137.41 414.28C1148.11 430.752 1155.04 449.325 1157.9 469.589C1163.48 506.218 1154.37 547.151 1132.73 584.627L1131.35 587.024C1103.4 633.927 1058.3 669.769 1007.56 685.208C952.766 701.92 893.755 695.321 835.875 666.695C976.503 742.545 1098.21 680.19 1152.44 588.741L1153.7 586.562C1194.33 516.186 1197.83 416.529 1109.7 361.868C1090.98 350.284 1069.46 335.929 1046.57 320.65L1046.46 320.576C1043.73 318.757 1040.98 316.925 1038.22 315.084C938.609 248.471 807.464 161.094 671.143 118.785C807.867 160.941 939.076 248.396 1036.77 313.511L1036.77 313.512L1038.47 314.648C1041.23 316.488 1043.98 318.318 1046.7 320.135L1046.81 320.209L1046.82 320.215C1069.72 335.494 1091.23 349.849 1109.95 361.433C1149.94 386.264 1174.37 422.447 1180.41 466.319C1186.42 505.229 1177.21 547.846 1154.69 586.847L1153.31 589.244C1124.23 638.108 1077.13 675.408 1024.19 691.617C965.005 709.585 900.899 701.679 838.197 668.769C987.299 753.215 1116.99 687.878 1174.27 591.178L1175.66 588.782C1217.92 515.573 1221.44 411.86 1129.73 354.843C1107.88 341.358 1082.31 324.267 1055.33 306.079L1054.3 305.391C953.532 238.218 822.285 150.728 685.148 105.426C823.069 150.685 954.88 238.359 1053.97 304.27L1055.71 305.425C1059.38 307.858 1063.02 310.276 1066.63 312.671L1066.77 312.766L1066.78 312.771C1089.76 328.025 1111.37 342.368 1130.11 354.189C1171.62 379.901 1196.86 417.71 1203.58 463.426C1209.49 504.021 1199.71 548.633 1176.31 589.159ZM641.364 110.304C651.311 112.876 661.241 115.712 671.143 118.785C662.156 116.014 653.145 113.439 644.118 111.078C643.202 110.816 642.284 110.558 641.364 110.304ZM623.014 105.866C629.136 107.242 635.253 108.724 641.364 110.304C635.273 108.62 629.109 107.114 623.014 105.866ZM1090.13 368.584C1110.98 381.556 1126.48 397.143 1137.41 414.28C1125.9 396.562 1110.04 381.274 1090.22 368.928C1070.12 356.449 1046.6 340.835 1021.67 324.122C921.642 257.363 784.645 166.066 643.383 128.956C566.143 108.765 495.343 107.107 432.323 124.176C372.246 140.424 317.851 174.188 270.001 224.526C368.191 120.322 490.633 88.8545 643.509 128.738C784.553 165.723 921.55 257.019 1021.58 323.778C1046.5 340.491 1070.03 356.106 1090.13 368.584ZM190.147 401.237C205.809 360.021 224.88 323.969 238.466 300.438C245.107 288.935 250.493 280.44 253.463 275.757C255.105 273.166 256.009 271.742 255.976 271.619C354.652 144.988 480.877 103.984 642.12 146.239C777.055 181.729 908.202 269.068 1004 333.093C1006.32 334.628 1008.62 336.158 1010.92 337.679C1032.13 351.751 1052.27 365.113 1069.63 375.92C1150.48 426.086 1147.36 517.537 1110.12 582.03L1108.99 583.991C1059.96 666.484 951.322 723.006 825.066 658.939C875.586 682.142 926.872 686.706 974.627 672.298C1021.25 657.964 1062.78 625.289 1088.12 582.4L1089.38 580.221C1109.13 546.013 1117.25 508.29 1112.07 474.502C1106.71 435.97 1085.29 404.137 1050.19 382.417C1034.26 372.468 1016.1 360.35 996.637 347.369L996.518 347.289C993.578 345.328 990.609 343.348 987.614 341.352L986.674 340.726L986.674 340.726L986.673 340.725C895.279 279.831 770.306 196.564 641.579 162.776C633.15 160.585 624.799 158.634 616.529 156.923C489.541 130.001 386.147 159.908 302.223 247.747C291.712 258.635 281.549 270.404 271.747 283.049C271.728 283.081 271.623 283.242 271.436 283.527L271.435 283.528L271.434 283.529C267.801 289.071 233.563 341.291 208.375 407.403C192.622 448.276 183.465 486.275 180.94 520.84C177.566 563.921 184.922 600.995 202.48 631.468C219.235 660.315 247.075 673.484 290.208 672.241C328.518 671.214 375.785 659.058 426.022 646.137L428.54 645.49C537.467 617.188 671.815 582.414 789.046 640.216C738.33 617.061 680.702 607.842 613.929 612.209C546.597 616.62 479.052 633.982 419.285 649.443L416.831 650.075C364.17 663.645 314.814 676.362 274.8 677.29C229.983 678.432 201.145 664.978 183.897 634.975C142.647 563.516 164.478 468.341 190.147 401.237ZM272.342 282.521C282.017 270.064 291.975 258.474 302.223 247.747C345.431 202.994 394.518 173.131 448.523 158.513C499.164 144.782 555.649 144.332 616.529 156.923C624.596 158.634 632.758 160.573 641.017 162.742C769.527 196.405 894.501 279.672 985.895 340.566L986.834 341.192C1009.58 356.647 1031.26 370.912 1049.63 382.384C1126.9 430.193 1123.8 517.588 1088.2 579.248L1087.06 581.209C1040.5 659.908 936.88 713.804 816.496 653.097C864.492 674.992 913.236 679.462 958.461 665.579C1002.9 652.015 1042.42 620.798 1066.63 579.87L1067.76 577.909C1086.63 545.227 1094.19 509.498 1089.74 476.431C1084.51 439.709 1064.02 409.285 1030.66 388.572C1012.95 377.477 992.569 363.967 970.789 349.359L970.781 349.354C883.537 291.14 764 211.378 640.819 179.187C573.335 161.722 511.428 160.26 456.657 175.12C392.606 192.466 335.883 232.344 288.113 293.95C288.094 293.983 287.989 294.143 287.804 294.425C284.291 299.792 251.82 349.39 227.794 412.514C212.955 451.3 204.118 487.74 201.693 520.621C198.672 561.581 205.567 596.937 222.196 626.002C238.112 653.784 264.771 665.98 305.967 665.071C342.479 664.16 387.361 652.641 435.204 640.361L437.678 639.726L437.968 639.652C541.753 612.903 669.714 579.924 781.324 634.866C732.97 612.908 677.891 604.229 614.165 608.278C550.266 612.398 486.065 628.978 429.292 643.64L429.292 643.64L428.297 643.897C377.341 657.182 329.041 669.387 290.309 670.556C247.519 671.707 219.989 659.008 203.453 630.287C164.155 561.989 184.937 471.147 209.407 407.127C224.498 367.906 242.688 333.379 255.645 310.937C260.326 302.829 264.326 296.245 267.236 291.454L267.237 291.454L267.237 291.453L267.237 291.453L267.238 291.452C270.426 286.203 272.307 283.108 272.342 282.521ZM272.732 321.093C260.279 342.664 243.094 375.447 228.666 413.017C205.27 474.171 185.538 560.68 223.101 625.943C238.708 653.256 265.148 665.326 305.783 664.384C342.705 663.331 388.725 651.554 437.276 638.913L438.316 638.645C492.333 624.721 553.763 608.887 614.585 605.034C681.326 600.73 737.713 611.213 787.143 636.971C787.111 636.952 787.079 636.934 787.046 636.916C677.818 575.015 549.818 608.022 447 634.65L444.51 635.288L444.51 635.288L444.509 635.288C399.071 646.924 356.264 657.886 321.568 658.681C282.399 659.598 257.174 647.94 241.844 621.658C205.797 559.303 224.732 476.691 247.179 418.186C270.105 357.78 301.541 310.261 304.447 305.868C304.579 305.668 304.652 305.558 304.663 305.539C350.11 246.949 404.017 208.931 464.848 192.632C517.088 178.635 575.969 179.802 639.992 196.721C757.067 227.419 870.759 303.227 953.771 358.707C956.891 360.77 959.981 362.816 963.037 364.838C980.37 376.31 996.586 387.044 1010.71 395.941C1042.55 415.774 1061.89 444.663 1067.01 479.575C1071.24 510.488 1064.01 544.657 1046.15 575.597L1045.01 577.558C1021.93 616.525 984.417 646.284 942.169 659.077C895.438 673.342 844.883 667.181 795.424 641.465C795.506 641.511 795.588 641.558 795.67 641.604C915.357 709.543 1019.51 656.957 1065.63 579.584L1066.76 577.624C1100.73 518.795 1103.69 435.675 1030.12 390.005C1012.63 379.036 992.032 365.4 970.252 350.792L970.244 350.787C883.001 292.574 763.464 212.811 640.626 180.528C493.689 142.175 378.621 179.453 288.859 294.671C288.823 294.733 288.662 294.982 288.385 295.411C286.698 298.017 280.727 307.246 272.732 321.093ZM247.925 418.907C261.565 383.206 278.087 352.074 289.911 331.593C295.231 322.379 299.577 315.387 302.23 311.119L302.23 311.119C304.031 308.221 305.052 306.579 305.065 306.352C390.434 196.731 499.751 161.363 639.363 197.81C756.438 228.509 869.912 304.191 952.924 359.671C956.041 361.731 959.128 363.775 962.181 365.796L962.183 365.797C979.518 377.271 995.737 388.006 1009.87 396.904C1079.73 440.437 1077.13 519.408 1044.8 575.403L1043.8 577.147C1000.59 649.999 903.529 699.405 791.558 638.553C836.84 660.639 883.008 665.388 925.659 652.451C965.501 640.302 1001.23 612.126 1023.18 575.12L1024.19 573.377C1041.17 543.963 1048.3 511.478 1044.53 482.283C1039.66 448.964 1021.11 421.701 991.022 402.874C976.4 393.897 959.431 382.579 941.596 370.683L939.311 369.159L937.004 367.62L935.381 366.539C856.835 314.229 749.62 242.825 639.291 214.037C578.478 198.1 522.656 196.666 473.04 210.144C415.302 225.614 363.994 261.647 320.87 317.22C320.859 317.239 320.789 317.344 320.665 317.534L320.663 317.537L320.663 317.537C317.911 321.738 288.42 366.754 266.439 424.077C245.316 479.28 227.304 557.777 261.4 616.971C275.8 641.844 299.81 653.092 336.95 652.165C369.143 651.499 408.661 641.396 450.682 630.652L450.682 630.652L453.569 629.914L455.886 629.322C551.621 604.577 670.727 573.926 773.167 628.748C727.61 606.508 675.577 597.535 614.913 601.447C556.634 605.275 498.024 620.242 446.38 633.711C350.778 658.406 275.328 677.885 242.657 621.256C206.702 559.245 225.729 476.977 247.925 418.907ZM306.998 341.748C295.803 361.14 280.162 390.747 267.31 424.58C246.313 479.565 228.21 557.718 262.213 616.569C293.15 670.163 364.819 651.696 455.392 628.165C545.097 604.976 655.177 576.637 753.113 617.802C658.998 574.205 551.67 601.765 464.647 624.212C422.969 635.011 383.698 645.165 352.207 645.867C317.096 646.803 294.175 636.184 280.612 612.376C248.343 556.56 265.432 482.178 285.48 429.841C307.14 373.205 336.733 328.993 337.202 328.683C378.004 276.127 426.369 242.172 481.14 227.312C528.007 214.571 581.021 215.837 638.28 230.884C743.1 258.403 844.612 326.122 918.997 375.744L919.803 376.281C938.222 388.659 955.895 400.315 970.896 409.556C999.589 427.285 1016.86 453.232 1021.4 484.614C1025.24 512.686 1018.67 543.176 1002.57 571.065L1001.56 572.808C980.749 607.853 947.147 634.353 909.023 646.042C871.585 657.47 831.42 654.331 791.791 637.295C894.234 687.769 982.252 641.559 1022.09 574.491L1023.1 572.748C1053.66 519.802 1056.24 444.888 989.957 403.712C975.842 395.046 959.711 384.297 942.438 372.787L942.236 372.652C940.153 371.264 938.054 369.865 935.94 368.458L934.218 367.311C855.684 315.009 748.727 243.777 638.444 215.001C505.939 180.333 402.247 214.01 321.397 317.815C321.384 318.043 320.398 319.623 318.668 322.397C316.135 326.457 312.006 333.075 306.998 341.748ZM286.696 430.252C298.977 398.414 313.737 370.332 324.304 352.03C332.229 338.304 337.696 329.84 338.04 329.748C414.621 231.322 512.564 199.554 637.743 232.317C742.346 259.711 843.857 327.429 918.241 377.051L919.048 377.589C924.298 381.031 929.468 384.45 934.523 387.793L934.529 387.798C947.328 396.263 959.389 404.24 970.141 410.864C1032.85 449.683 1030.29 520.541 1001.35 570.654L1000.47 572.179C962.786 635.524 879.583 679.291 782.46 631.369C819.856 647.368 857.519 650.213 892.731 639.541C928.667 628.623 960.392 603.362 979.948 570.496L980.829 568.971C996.05 542.607 1002.29 513.676 998.355 487.289C994.148 457.843 977.594 433.178 950.643 416.456C940.538 410.206 929.241 402.674 917.24 394.673L917.238 394.671L917.223 394.661L917.2 394.646L917.154 394.615C912.403 391.447 907.542 388.206 902.601 384.942C832.376 338.007 736.358 273.856 637.143 247.949C582.876 233.758 533.013 232.568 488.896 244.573C437.218 258.603 391.67 290.699 353.191 340.238C353.188 340.244 353.181 340.254 353.171 340.271C353.157 340.292 353.137 340.322 353.111 340.362C353.077 340.414 353.033 340.481 352.979 340.563C350.345 344.567 323.911 384.751 304.522 435.606C285.547 485.077 269.508 555.125 300.043 607.906C328.006 656.588 392.458 640.055 473.751 619.01C556.088 597.648 657.799 571.26 746.849 613.375C654.114 574.045 549.823 600.95 464.634 622.928L464.496 622.963C378.736 645.205 310.972 662.441 281.769 611.882C249.718 556.192 266.647 482.589 286.696 430.252ZM341.265 362.404C331.327 379.617 317.23 406.048 305.829 436.361C287.106 485.396 271.1 554.883 301.199 607.412C328.583 654.973 391.617 638.8 471.701 618.253L473.257 617.854C554.679 596.726 654.787 570.913 743.249 610.604C658.746 568.442 561.506 593.444 482.855 613.808L482.725 613.842C406.305 633.582 345.905 649.184 319.473 603.437C290.89 553.816 305.88 488.101 323.656 441.714C341.88 393.853 366.542 356.298 369.063 352.457L369.064 352.456L369.153 352.321L369.202 352.246L369.244 352.182L369.26 352.156L369.268 352.143L369.272 352.137C405.428 305.614 448.378 275.504 496.744 262.177C538.33 251.034 585.167 251.93 636.098 265.357C728.798 289.664 818.803 349.564 884.628 393.373L885.491 393.947C887.159 395.058 888.817 396.164 890.466 397.263L890.555 397.322L890.559 397.325L890.561 397.326C905.052 406.986 918.728 416.102 930.609 423.482C987.124 458.435 985 521.993 959.087 566.876L958.206 568.402C939.782 599.307 910.061 623.11 876.313 633.257C841.897 643.762 805.15 640.35 768.856 623.859C862.076 672.528 942.548 630.784 978.389 570.177L979.27 568.652C1006.57 521.371 1008.77 454.662 949.763 417.982C935.634 409.243 919.05 398.216 901.72 386.467C831.496 339.532 735.478 275.381 636.48 249.6C518.408 218.616 426.091 248.693 354.029 341.303C354.066 341.441 353.238 342.753 351.75 345.114L351.749 345.115L351.749 345.116C349.515 348.658 345.793 354.561 341.265 362.404ZM325.214 442.033C336.044 413.715 349.262 388.809 358.57 372.686C364.381 362.621 368.813 355.654 370.233 353.423C370.503 352.997 370.665 352.744 370.705 352.674C438.247 265.879 525.158 237.619 635.905 266.698C728.213 291.083 817.953 350.808 883.767 394.609L884.736 395.254L885.981 396.084L887.488 397.088L889.711 398.57L889.801 398.63C904.294 408.291 917.972 417.409 929.854 424.789C985.28 459.114 983.098 521.766 957.562 565.996L956.807 567.303C923.684 623.23 850.525 661.894 765.113 620.191C797.378 633.658 829.87 635.864 860.147 626.538C891.489 617.035 919.424 594.816 936.716 565.872L937.471 564.564C961.749 522.513 963.729 463.23 911.01 430.759C898.624 423.027 884.093 413.476 868.816 403.203L867.333 402.214C805.798 361.177 722.04 305.319 635.615 282.799C587.893 270.354 543.99 269.409 505.154 279.815C459.788 291.97 419.656 320.22 385.822 363.726C385.478 363.818 360.85 400.438 343.041 447.386C326.465 490.689 312.398 552.29 339.372 598.657C364.072 641.372 420.354 626.87 491.969 608.418L492.085 608.388C564.188 589.764 652.673 566.913 730.434 602.81C648.641 569.045 557.258 592.704 482.394 612.09L481.458 612.332C406.108 631.79 346.602 647.156 320.881 602.507C292.608 553.356 307.565 488.202 325.214 442.033ZM340.437 597.82C300.21 528.113 352.26 423.367 376.16 381.97C381.288 373.088 385.151 367.095 386.449 365.08C386.711 364.673 386.869 364.428 386.911 364.355C450.403 283.065 531.346 256.589 634.986 283.889C721.748 306.678 806.053 362.897 867.719 404.019L867.72 404.02L867.751 404.041C883.246 414.439 897.777 423.991 910.163 431.723C961.885 463.909 959.847 522.286 935.946 563.684L935.191 564.991C905.036 615.815 839.272 651.38 762.071 617.191C789.696 627.155 817.436 628.278 843.385 620.347C872.666 611.397 898.597 590.636 914.757 563.652L915.512 562.345C938.155 523.126 940.242 467.682 891.009 437.223C882.534 432.119 873.17 425.885 863.18 419.234L863.167 419.226C859.441 416.745 855.627 414.206 851.74 411.646C794.522 373.382 715.615 320.853 634.604 299.646C590.436 288.09 549.466 287.096 513.254 296.983C470.981 308.309 433.666 334.699 402.155 375.189C402.133 375.227 402.034 375.379 401.865 375.64C396.244 384.323 312.413 513.818 358.803 594.188C381.874 634.235 434.423 620.707 501.063 603.404C564.868 586.971 642.734 566.918 712.54 593.986C638.998 568.788 558.017 589.706 491.498 606.888L491.372 606.92C420.45 625.187 364.516 639.594 340.437 597.82ZM360.211 593.258C322.74 528.338 371.074 431.035 393.34 392.469C398.128 384.177 401.664 378.741 402.884 376.865L402.885 376.865C403.139 376.473 403.293 376.237 403.336 376.162C462.091 300.562 537.501 276.12 633.941 301.297C714.735 322.378 793.423 374.781 850.642 413.046C851.449 413.577 852.253 414.107 853.056 414.636C853.908 415.197 854.757 415.757 855.604 416.315L855.605 416.315L855.606 416.317C868.103 424.551 879.953 432.36 890.128 438.749C938.272 468.578 936.47 523.025 914.204 561.59L913.45 562.897C884.47 611.638 820.211 645.401 745.29 608.061C772.964 619.554 800.895 621.555 827.001 613.502C854.437 605.23 878.457 586.27 893.267 561.122L893.896 560.032C914.904 523.646 916.63 472.351 870.757 444.123C861.428 438.228 850.618 431.031 839.185 423.419L838.995 423.292L836.626 421.716C835.86 421.206 835.091 420.694 834.32 420.181C781.334 384.651 708.621 335.988 633.375 316.367C592.199 305.667 554.381 304.749 520.918 313.899C481.957 324.523 447.24 348.927 418.052 386.401C418.029 386.44 417.931 386.591 417.764 386.849L417.762 386.852C412.36 395.202 334.946 514.85 377.923 589.249C399.26 626.261 448.029 613.746 509.858 597.733L510.463 597.577C572.727 581.59 649.02 562.002 716.117 593.45C645.342 564.399 566.087 584.816 501.217 601.528L500.603 601.686L500.462 601.722C434.702 618.606 382.554 631.995 360.211 593.258ZM410.52 402.969C389.889 438.701 345.145 528.781 379.768 588.571C400.61 624.426 448.692 612.095 509.615 596.14C567.284 581.171 637.373 563.157 701.226 585.51C641.448 561.198 574.426 578.544 519.514 592.755L519.054 592.874L518.747 592.954C462.217 607.549 417.231 619.164 397.571 584.905C358.106 516.405 429.538 405.853 434.239 398.578C434.377 398.363 434.458 398.239 434.476 398.207C484.317 334.02 551.101 312.443 632.548 333.901C701.341 351.939 767.886 396.291 816.701 428.827L816.702 428.828L817.428 429.312C829.562 437.48 841.169 445.052 850.94 451.274C893.235 477.146 891.527 524.384 872.28 557.72L871.651 558.81C857.973 581.997 835.74 599.374 810.709 607.001C788.247 613.867 764.407 612.757 740.538 604.056C808.028 635.258 865.577 604.611 891.742 560.241C912.934 524.542 915.095 473.498 870.22 445.556C859.577 438.83 846.881 430.629 833.784 421.614L832.132 420.516C779.169 385.3 707.187 337.437 633.274 318.052C544.158 294.78 474.155 317.404 419.795 387.407C419.715 387.545 419.492 387.909 419.14 388.484L419.139 388.485L419.138 388.487C417.817 390.642 414.688 395.749 410.52 402.969ZM399.198 584.101C367.457 528.881 408.486 446.243 427.481 413.342C431.481 406.414 434.6 401.681 435.752 399.933C436.013 399.537 436.173 399.294 436.219 399.214C486.404 334.934 550.439 314.094 632.447 335.586C700.807 353.373 767.349 397.724 816.164 430.26L816.891 430.745L817.848 431.389L819.806 432.708L819.807 432.708C830.863 440.155 841.302 447.186 850.403 452.708C891.265 478.042 889.624 524.157 870.755 556.84L870.126 557.929C845.554 599.052 791.911 627.602 729.267 597.53C783.118 617.992 828.775 592.419 850.035 556.498L850.539 555.626C868.15 525.122 869.622 481.815 831.283 457.646C825.179 453.926 818.451 449.447 811.28 444.672L811.279 444.671L811.278 444.671C807.845 442.385 804.311 440.032 800.696 437.663C756.265 407.944 694.907 367.289 631.881 350.656C557.415 331.194 496.382 350.863 450.934 409.453C450.916 409.485 450.835 409.61 450.697 409.823L450.697 409.823C446.215 416.766 381.2 517.471 417.253 580C435.18 611.227 476.049 600.712 527.771 587.404L528.066 587.329L529.305 587.013C580.701 573.926 643.599 557.91 698.965 582.796C639.297 560.098 572.993 577.075 518.594 591.156L518.284 591.236C462.444 605.647 418.146 617.079 399.198 584.101ZM444.786 423.624C427.552 453.474 389.987 529.106 419.098 579.322C436.313 609.267 476.493 598.935 527.527 585.812L527.824 585.736C575.952 573.318 634.014 558.377 687.05 576.265C637.797 556.504 582.544 570.671 537.262 582.47C492.148 594.19 453.22 604.252 436.776 575.874C404.037 519.147 463.202 427.71 467.042 421.775C467.154 421.602 467.219 421.502 467.233 421.477C508.504 368.611 563.57 350.726 631.054 368.19C688.095 383.111 743.479 420.026 783.896 447.137C784.927 447.821 785.951 448.502 786.968 449.178L787.097 449.263L787.138 449.29L787.139 449.291L787.141 449.293C796 455.179 804.286 460.684 811.558 465.141C846.009 486.484 844.899 525.643 828.923 553.314L828.42 554.185C809.458 586.143 769.434 609.083 721.968 592.581C778.328 618.575 826.533 592.734 848.51 555.617C866.306 525.801 868.088 482.963 830.369 459.733C824.266 456.013 817.538 451.534 810.367 446.76L810.366 446.759C806.933 444.473 803.398 442.12 799.781 439.75C755.351 410.03 694.336 369.284 631.528 352.776C556.845 333.189 498.217 352.213 452.769 410.803C452.174 411.331 449.189 415.998 444.786 423.624ZM438.436 574.509C412.299 529.206 446.149 461.015 461.747 433.998C464.826 428.665 467.15 424.935 468.241 423.184L468.243 423.18L468.244 423.179L468.244 423.178L468.246 423.175C468.578 422.641 468.796 422.293 468.884 422.14C562.697 301.416 700.564 393.215 782.705 448.193C783.753 448.888 784.793 449.579 785.826 450.266L785.922 450.329L785.952 450.349L785.955 450.352C794.812 456.236 803.096 461.74 810.368 466.197C843.947 487.037 842.56 525.164 827.088 551.964L826.584 552.835C807.262 585.379 765.562 608.424 716.396 587.989C756.772 599.54 790.382 579.468 806.678 552.091L807.181 551.22C821.522 526.381 822.74 491.061 791.524 472.167C789.466 470.812 787.299 469.394 785.043 467.917L785.042 467.917C779.454 464.259 773.317 460.243 766.912 455.924C730.601 431.764 681.067 398.808 630.135 385.381C569.884 369.478 520.569 385.454 483.565 432.94C483.55 432.966 483.485 433.067 483.374 433.239C479.75 438.845 427.006 520.432 456.332 571.187C470.916 596.748 506.064 587.699 546.367 577.268C584.063 567.48 629.586 555.728 671.418 568.724C626.065 557.083 577.572 569.542 537.079 579.946L536.618 580.064C490.472 592.06 453.95 601.478 438.436 574.509ZM478.927 444.497C464.964 468.682 434.703 529.649 458.084 570.165C472.082 594.225 504.48 585.913 545.814 575.206L546.882 574.933L546.882 574.933C585.762 564.991 632.523 553.033 675.309 567.627C636.096 550.67 591.713 562.145 555.468 571.517L555.161 571.597C519.326 580.83 488.646 588.682 475.452 566.248C449.536 521.46 495.874 449.71 499.271 444.451L499.272 444.449L499.273 444.447C499.382 444.278 499.446 444.179 499.462 444.152C532.071 402.263 575.636 388.196 628.906 402.102C673.67 413.769 717.273 442.92 749.101 464.198L749.491 464.459C752.842 466.636 756.058 468.786 759.133 470.842C763.425 473.711 767.444 476.398 771.179 478.723C799.127 495.73 798.053 526.776 785.347 548.782L784.97 549.436C770.074 574.363 739.043 592.38 702.113 580.168C747.944 601.746 787.114 580.997 805.061 550.867L805.438 550.213C819.276 526.246 820.518 492.393 790.517 473.91C783.566 469.619 775.454 464.129 767.1 458.475L765.905 457.667C692.32 408.501 569.419 326.505 485.401 434.29C485.057 434.382 482.575 438.179 478.927 444.497ZM477.422 565.352C457.015 529.748 483.56 476.223 495.888 454.871C497.164 452.66 498.29 450.794 499.17 449.333L499.171 449.332L499.171 449.332C500.461 447.193 501.226 445.924 501.171 445.72C574.878 350.727 683.088 422.903 747.923 466.149L748.141 466.294C756.044 471.728 763.636 476.692 770.047 480.684C796.779 497.28 795.429 527.295 782.883 548.521C767.218 575.175 732.42 593.418 691.836 574.046C723.796 584.298 750.549 568.868 763.354 547.124L763.732 546.47C774.676 527.514 775.732 500.526 751.706 485.783C747.261 482.983 742.336 479.719 736.978 476.169L736.973 476.166C736.104 475.59 735.224 475.006 734.332 474.416C733.872 474.112 733.409 473.805 732.943 473.497C705.314 454.931 667.479 429.891 628.423 419.544C582.26 407.417 544.32 419.793 516.104 456.085C514.251 458.791 472.247 521.984 495.318 562.03C506.586 581.533 533.023 574.763 563.815 566.877L564.357 566.738C595.201 558.642 633.054 548.819 666.638 562.492C629.171 550.502 588.251 561.018 554.482 569.752C518.304 579.078 489.686 586.377 477.422 565.352ZM513.193 465.153C502.626 483.455 479.545 529.974 497.322 560.573C507.726 578.781 532.689 572.277 563.838 564.115L564.137 564.038C591.687 556.951 624.468 548.517 655.241 556.143C628.196 547.208 598.3 554.834 573.688 561.112L573.369 561.193C547.032 568.066 524.475 573.925 514.782 557C496.192 524.778 527.412 475.069 531.867 467.974C531.998 467.767 532.105 467.597 532.187 467.464C532.259 467.348 532.312 467.262 532.345 467.204C587.553 396.238 667.858 449.865 715.867 481.941C720.546 485.107 725.027 487.973 728.911 490.457L728.911 490.457C729.882 491.078 730.815 491.675 731.705 492.247C752.119 505.195 751.425 528.035 741.99 544.376L741.739 544.812C731.391 562.318 710.133 575.107 684.716 568.658C718.926 584.154 748.233 568.314 761.519 545.774L761.896 545.12C772.337 527.036 773.2 501.388 750.608 487.182C745.898 484.216 740.492 480.638 734.714 476.814L734.674 476.787L734.516 476.682L734.356 476.576C733.455 475.98 732.545 475.378 731.627 474.771L731.408 474.625C675.346 437.317 581.759 375.036 517.973 456.873L513.193 465.153ZM516.752 556.103C501.858 530.073 521.223 490.996 530.155 475.526C531.985 472.356 533.465 470.122 534.031 469.267L534.032 469.265L534.033 469.265L534.033 469.264L534.033 469.264C534.166 469.063 534.248 468.939 534.272 468.898C588.13 399.767 667.472 452.547 714.609 484.119C719.509 487.435 724.192 490.421 728.326 493.059C728.803 493.363 729.273 493.662 729.734 493.957C730.048 494.157 730.359 494.355 730.665 494.552C749.898 506.527 748.927 528.336 739.778 543.679C728.324 563.04 703.063 576.269 673.704 562.225C693.859 566.905 711.462 557.092 720.123 542.499L720.374 542.064C728.048 528.773 728.506 509.864 711.888 499.398C709.468 498.001 706.894 496.293 704.129 494.459L704.129 494.459L704.127 494.458L704.126 494.457C702.412 493.32 700.626 492.135 698.757 490.945L698.748 490.939C659.294 464.674 593.618 420.953 548.426 479.103C548.388 479.167 548.32 479.278 548.224 479.431C548.17 479.518 548.107 479.619 548.035 479.733L548.034 479.734C544.382 485.546 518.786 526.282 534.087 552.748C542.045 566.639 560.822 561.792 582.348 556.208C602.572 550.95 627.385 544.601 649.648 552.177C623.65 545.921 595.984 553.07 572.817 559.131L572.342 559.252C546.013 565.941 525.371 571.186 516.752 556.103ZM536.308 551.416C524.262 530.516 540.038 498.663 547.334 486.026L547.334 486.025C549.221 482.757 550.353 480.796 550.697 480.704C594.542 424.386 658.917 467.363 697.499 493.124C702.384 496.235 706.834 499.095 710.63 501.577C726.067 511.07 725.366 528.386 718.195 540.806L717.944 541.241C708.165 557.675 686.084 568.748 660.684 554.373C635.598 540.175 606.737 547.473 583.196 553.425C582.696 553.552 582.198 553.678 581.703 553.803L580.432 554.122C559.637 559.341 543.32 563.437 536.308 551.416Z" fill="url(#paint0_linear)"/>
<defs>
<linearGradient id="paint0_linear" x1="440.455" y1="846.43" x2="832.479" y2="167.424" gradientUnits="userSpaceOnUse">
<stop stop-color="#FFD110" stop-opacity="0"/>
<stop offset="0.286458" stop-color="#109BFF"/>
<stop offset="0.614583" stop-color="#FF0469"/>
<stop offset="1" stop-color="#04DA00" stop-opacity="0"/>
</linearGradient>
</defs>
</svg>
