<svg width="163" height="21" viewBox="0 0 163 21" fill="none" xmlns="http://www.w3.org/2000/svg">
<path d="M111.3 8.41288H99.835L101.707 5.18476C102.487 3.8353 103.189 3.35902 104.333 3.35902C105.503 3.35902 105.893 4.31158 105.269 5.47582H116.968L118.138 3.35902C118.996 1.77142 118.996 0.0515137 116.89 0.0515137H96.2732C94.4014 0.0515137 92.9455 0.289654 91.8536 2.1154L88.2138 8.41288C87.1999 10.2386 87.2779 11.7204 89.7737 11.7204H101.629L99.705 15.1866C99.159 16.1392 98.4571 16.7743 96.8452 16.7743C95.4413 16.7743 95.5193 15.8217 96.1432 14.8956H84.5221L83.1182 17.2505C82.2603 18.7588 82.9622 20.0818 84.9901 20.0818H105.451C107.322 20.0818 108.934 19.2086 109.87 17.6474L113.354 11.7204C114.082 10.2386 113.692 8.41288 111.3 8.41288Z" fill="black"/>
<path d="M161.087 3.94141C160.151 3.94141 159.371 4.70875 159.371 5.63485C159.371 6.58741 160.151 7.32829 161.087 7.32829C162.023 7.32829 162.803 6.56095 162.803 5.63485C162.777 4.70875 162.023 3.94141 161.087 3.94141ZM161.087 7.01077C160.307 7.01077 159.709 6.40219 159.709 5.63485C159.709 4.89397 160.333 4.28539 161.087 4.28539C161.841 4.28539 162.465 4.89397 162.465 5.63485C162.465 6.40219 161.841 7.01077 161.087 7.01077Z" fill="black"/>
<path d="M84.8869 0.0515137H67.3642C64.9724 0.0515137 61.8526 0.0515137 60.0067 3.35902L52.2593 16.7743C51.1674 18.6 52.1033 20.0818 54.1311 20.0818H74.4877C76.5675 20.0818 77.8934 19.4467 79.5313 16.7743L87.2787 3.35902C88.2927 1.63912 86.7328 0.0515137 84.8869 0.0515137ZM75.0336 5.18476L69.236 15.1866C68.4561 16.6155 67.7542 16.7743 65.9863 16.7743C64.1924 16.7743 63.7504 16.1392 64.2704 15.1866L70.146 5.18476C71.0039 3.67654 72.0178 3.35902 73.4737 3.35902C74.9556 3.35902 75.8136 3.8353 75.0336 5.18476Z" fill="black"/>
<path d="M54.1822 0.0515137H31.7198L22.0485 16.7743H0.6521V20.0818H43.8089C46.6687 20.0818 47.6046 18.6529 48.2286 17.5681L50.5424 13.4667C51.1664 12.3554 51.1664 11.1118 49.9185 10.3974C51.1664 10.3974 52.8562 9.5242 53.8702 7.72492L56.184 3.703C57.3799 1.7185 55.976 0.0515137 54.1822 0.0515137ZM42.639 13.5461L41.4691 15.4248C41.1571 16.0598 40.6112 16.7743 39.3112 16.7743H33.5657L36.5295 11.7204H42.093C43.107 11.7204 43.107 12.6729 42.639 13.5461ZM47.5266 5.18476L46.3567 7.08988C46.0448 7.72492 45.4988 8.43934 44.1989 8.43934H38.4533L41.3911 3.38548H46.9807C47.9946 3.35902 47.9946 4.31158 47.5266 5.18476Z" fill="black"/>
<path d="M161.945 5.18502C161.945 5.02626 161.867 4.8675 161.737 4.78812C161.581 4.70874 161.425 4.70874 161.269 4.70874H160.437V6.5874H160.723V5.71422H161.061L161.607 6.5874H161.919L161.347 5.71422C161.685 5.71422 161.945 5.55546 161.945 5.18502ZM161.035 5.47608H160.723V4.89396H161.217C161.451 4.89396 161.659 4.92042 161.659 5.15856C161.659 5.529 161.295 5.47608 161.035 5.47608Z" fill="black"/>
<path d="M133.347 3.35902H162.413V0.0515137H123.675L112.132 20.0818H139.092L141.016 16.7743H125.599L128.537 11.7204H143.954L145.826 8.41288H130.487L133.347 3.35902Z" fill="black"/>
</svg>


