<svg width="32" height="32" viewBox="0 0 32 32" fill="none" xmlns="http://www.w3.org/2000/svg">
<g filter="url(#filter0_d)">
<path d="M27.7265 22.4071L21.8694 16.5501C23.3253 14.7993 24.2024 12.5512 24.2024 10.1016C24.2024 4.53154 19.671 0 14.1012 0C8.53129 0 3.99988 4.53154 3.99988 10.1016C3.99988 15.6712 8.53129 20.2024 14.1012 20.2024C16.5507 20.2024 18.7989 19.3254 20.5497 17.8695L26.407 23.7267C26.5891 23.9089 26.828 24 27.0668 24C27.3055 24 27.5444 23.9089 27.7267 23.7267C28.0911 23.3623 28.0911 22.7715 27.7265 22.4071ZM5.86609 10.1016C5.86609 5.56057 9.56032 1.86621 14.1012 1.86621C18.6419 1.86621 22.336 5.56057 22.336 10.1016C22.336 14.6422 18.6419 18.3362 14.1012 18.3362C9.56032 18.3362 5.86609 14.6422 5.86609 10.1016Z" fill="white"/>
<path d="M27.5851 22.5485L27.5851 22.5486C27.8715 22.8349 27.8715 23.2989 27.5852 23.5852C27.442 23.7285 27.2547 23.8 27.0668 23.8C26.8789 23.8 26.6916 23.7285 26.5485 23.5853L26.5484 23.5852L20.6911 17.7281L20.5621 17.5991L20.4218 17.7157C18.7055 19.143 16.5021 20.0024 14.1012 20.0024C8.64174 20.0024 4.19988 15.5607 4.19988 10.1016C4.19988 4.64199 8.64175 0.2 14.1012 0.2C19.5605 0.2 24.0024 4.64199 24.0024 10.1016C24.0024 12.5025 23.1428 14.7059 21.7156 16.4222L21.5989 16.5625L21.7279 16.6915L27.5851 22.5485ZM14.1012 1.66621C9.44986 1.66621 5.66609 5.45012 5.66609 10.1016C5.66609 14.7527 9.44988 18.5362 14.1012 18.5362C18.7524 18.5362 22.536 14.7526 22.536 10.1016C22.536 5.45012 18.7524 1.66621 14.1012 1.66621Z" stroke="#191919" stroke-width="0.4"/>
</g>
<defs>
<filter id="filter0_d" x="-0.00012207" y="0" width="32.0001" height="32" filterUnits="userSpaceOnUse" color-interpolation-filters="sRGB">
<feFlood flood-opacity="0" result="BackgroundImageFix"/>
<feColorMatrix in="SourceAlpha" type="matrix" values="0 0 0 0 0 0 0 0 0 0 0 0 0 0 0 0 0 0 127 0"/>
<feOffset dy="4"/>
<feGaussianBlur stdDeviation="2"/>
<feColorMatrix type="matrix" values="0 0 0 0 0 0 0 0 0 0 0 0 0 0 0 0 0 0 0.25 0"/>
<feBlend mode="normal" in2="BackgroundImageFix" result="effect1_dropShadow"/>
<feBlend mode="normal" in="SourceGraphic" in2="effect1_dropShadow" result="shape"/>
</filter>
</defs>
</svg>
